<mxfile host="app.diagrams.net" modified="2023-05-22T11:52:56.969Z" agent="Mozilla/5.0 (Windows NT 10.0; Win64; x64) AppleWebKit/537.36 (KHTML, like Gecko) Chrome/113.0.0.0 Safari/537.36" etag="E91sq5lxfbkSsiZ_UTHp" version="21.3.2" type="github">
  <diagram name="페이지-1" id="tAFCx29_-rlvc0EVFkHZ">
    <mxGraphModel dx="866" dy="618" grid="1" gridSize="10" guides="1" tooltips="1" connect="1" arrows="1" fold="1" page="1" pageScale="1" pageWidth="827" pageHeight="1169" math="0" shadow="0">
      <root>
        <mxCell id="0" />
        <mxCell id="1" parent="0" />
        <mxCell id="gJ_Xtz6bmZQ4SBWZCn3s-23" style="edgeStyle=orthogonalEdgeStyle;rounded=0;orthogonalLoop=1;jettySize=auto;html=1;exitX=1;exitY=0.5;exitDx=0;exitDy=0;entryX=0;entryY=0.5;entryDx=0;entryDy=0;" edge="1" parent="1" source="gJ_Xtz6bmZQ4SBWZCn3s-10" target="gJ_Xtz6bmZQ4SBWZCn3s-15">
          <mxGeometry relative="1" as="geometry" />
        </mxCell>
        <mxCell id="gJ_Xtz6bmZQ4SBWZCn3s-10" value="user_account" style="rounded=0;whiteSpace=wrap;html=1;" vertex="1" parent="1">
          <mxGeometry x="200" y="120" width="80" height="30" as="geometry" />
        </mxCell>
        <mxCell id="gJ_Xtz6bmZQ4SBWZCn3s-24" style="edgeStyle=orthogonalEdgeStyle;rounded=0;orthogonalLoop=1;jettySize=auto;html=1;exitX=1;exitY=0.5;exitDx=0;exitDy=0;entryX=0;entryY=0.5;entryDx=0;entryDy=0;" edge="1" parent="1" source="gJ_Xtz6bmZQ4SBWZCn3s-11" target="gJ_Xtz6bmZQ4SBWZCn3s-16">
          <mxGeometry relative="1" as="geometry" />
        </mxCell>
        <mxCell id="gJ_Xtz6bmZQ4SBWZCn3s-11" value="user_profile" style="rounded=0;whiteSpace=wrap;html=1;" vertex="1" parent="1">
          <mxGeometry x="200" y="160" width="80" height="30" as="geometry" />
        </mxCell>
        <mxCell id="gJ_Xtz6bmZQ4SBWZCn3s-25" style="edgeStyle=orthogonalEdgeStyle;rounded=0;orthogonalLoop=1;jettySize=auto;html=1;exitX=1;exitY=0.5;exitDx=0;exitDy=0;entryX=0;entryY=0.5;entryDx=0;entryDy=0;" edge="1" parent="1" source="gJ_Xtz6bmZQ4SBWZCn3s-12" target="gJ_Xtz6bmZQ4SBWZCn3s-17">
          <mxGeometry relative="1" as="geometry" />
        </mxCell>
        <mxCell id="gJ_Xtz6bmZQ4SBWZCn3s-12" value="user_friends" style="rounded=0;whiteSpace=wrap;html=1;" vertex="1" parent="1">
          <mxGeometry x="200" y="200" width="80" height="30" as="geometry" />
        </mxCell>
        <mxCell id="gJ_Xtz6bmZQ4SBWZCn3s-26" style="edgeStyle=orthogonalEdgeStyle;rounded=0;orthogonalLoop=1;jettySize=auto;html=1;exitX=1;exitY=0.5;exitDx=0;exitDy=0;entryX=0;entryY=0.5;entryDx=0;entryDy=0;" edge="1" parent="1" source="gJ_Xtz6bmZQ4SBWZCn3s-13" target="gJ_Xtz6bmZQ4SBWZCn3s-18">
          <mxGeometry relative="1" as="geometry" />
        </mxCell>
        <mxCell id="gJ_Xtz6bmZQ4SBWZCn3s-13" value="user_chatting" style="rounded=0;whiteSpace=wrap;html=1;" vertex="1" parent="1">
          <mxGeometry x="200" y="240" width="80" height="30" as="geometry" />
        </mxCell>
        <mxCell id="gJ_Xtz6bmZQ4SBWZCn3s-19" style="edgeStyle=orthogonalEdgeStyle;rounded=0;orthogonalLoop=1;jettySize=auto;html=1;exitX=1;exitY=0.5;exitDx=0;exitDy=0;entryX=0;entryY=0.5;entryDx=0;entryDy=0;" edge="1" parent="1" source="gJ_Xtz6bmZQ4SBWZCn3s-14" target="gJ_Xtz6bmZQ4SBWZCn3s-10">
          <mxGeometry relative="1" as="geometry" />
        </mxCell>
        <mxCell id="gJ_Xtz6bmZQ4SBWZCn3s-20" style="edgeStyle=orthogonalEdgeStyle;rounded=0;orthogonalLoop=1;jettySize=auto;html=1;exitX=1;exitY=0.5;exitDx=0;exitDy=0;entryX=0;entryY=0.5;entryDx=0;entryDy=0;" edge="1" parent="1" source="gJ_Xtz6bmZQ4SBWZCn3s-14" target="gJ_Xtz6bmZQ4SBWZCn3s-11">
          <mxGeometry relative="1" as="geometry" />
        </mxCell>
        <mxCell id="gJ_Xtz6bmZQ4SBWZCn3s-21" style="edgeStyle=orthogonalEdgeStyle;rounded=0;orthogonalLoop=1;jettySize=auto;html=1;exitX=1;exitY=0.5;exitDx=0;exitDy=0;entryX=0;entryY=0.5;entryDx=0;entryDy=0;" edge="1" parent="1" source="gJ_Xtz6bmZQ4SBWZCn3s-14" target="gJ_Xtz6bmZQ4SBWZCn3s-12">
          <mxGeometry relative="1" as="geometry" />
        </mxCell>
        <mxCell id="gJ_Xtz6bmZQ4SBWZCn3s-22" style="edgeStyle=orthogonalEdgeStyle;rounded=0;orthogonalLoop=1;jettySize=auto;html=1;exitX=1;exitY=0.5;exitDx=0;exitDy=0;entryX=0;entryY=0.5;entryDx=0;entryDy=0;" edge="1" parent="1" source="gJ_Xtz6bmZQ4SBWZCn3s-14" target="gJ_Xtz6bmZQ4SBWZCn3s-13">
          <mxGeometry relative="1" as="geometry" />
        </mxCell>
        <mxCell id="gJ_Xtz6bmZQ4SBWZCn3s-14" value="user 회원가입" style="rounded=0;whiteSpace=wrap;html=1;" vertex="1" parent="1">
          <mxGeometry x="60" y="120" width="100" height="30" as="geometry" />
        </mxCell>
        <mxCell id="gJ_Xtz6bmZQ4SBWZCn3s-15" value="id: int, email: string, password: string" style="rounded=0;whiteSpace=wrap;html=1;" vertex="1" parent="1">
          <mxGeometry x="320" y="120" width="240" height="30" as="geometry" />
        </mxCell>
        <mxCell id="gJ_Xtz6bmZQ4SBWZCn3s-16" value="id: int, thumbnail: string, background: string, name: string, comment: string" style="rounded=0;whiteSpace=wrap;html=1;" vertex="1" parent="1">
          <mxGeometry x="320" y="160" width="440" height="30" as="geometry" />
        </mxCell>
        <mxCell id="gJ_Xtz6bmZQ4SBWZCn3s-17" value="id: int, friends: list&amp;lt;id: int&amp;gt;" style="rounded=0;whiteSpace=wrap;html=1;" vertex="1" parent="1">
          <mxGeometry x="320" y="200" width="200" height="30" as="geometry" />
        </mxCell>
        <mxCell id="gJ_Xtz6bmZQ4SBWZCn3s-18" value="id: int, chattings: list&amp;lt;id: int&amp;gt;" style="rounded=0;whiteSpace=wrap;html=1;" vertex="1" parent="1">
          <mxGeometry x="320" y="240" width="200" height="30" as="geometry" />
        </mxCell>
        <mxCell id="gJ_Xtz6bmZQ4SBWZCn3s-32" style="edgeStyle=orthogonalEdgeStyle;rounded=0;orthogonalLoop=1;jettySize=auto;html=1;exitX=1;exitY=0.5;exitDx=0;exitDy=0;entryX=0;entryY=0.5;entryDx=0;entryDy=0;" edge="1" parent="1" source="gJ_Xtz6bmZQ4SBWZCn3s-27" target="gJ_Xtz6bmZQ4SBWZCn3s-28">
          <mxGeometry relative="1" as="geometry" />
        </mxCell>
        <mxCell id="gJ_Xtz6bmZQ4SBWZCn3s-33" style="edgeStyle=orthogonalEdgeStyle;rounded=0;orthogonalLoop=1;jettySize=auto;html=1;exitX=1;exitY=0.5;exitDx=0;exitDy=0;entryX=0;entryY=0.5;entryDx=0;entryDy=0;" edge="1" parent="1" source="gJ_Xtz6bmZQ4SBWZCn3s-27" target="gJ_Xtz6bmZQ4SBWZCn3s-29">
          <mxGeometry relative="1" as="geometry" />
        </mxCell>
        <mxCell id="gJ_Xtz6bmZQ4SBWZCn3s-27" value="chatting 만들기" style="rounded=0;whiteSpace=wrap;html=1;" vertex="1" parent="1">
          <mxGeometry x="60" y="320" width="100" height="30" as="geometry" />
        </mxCell>
        <mxCell id="gJ_Xtz6bmZQ4SBWZCn3s-34" style="edgeStyle=orthogonalEdgeStyle;rounded=0;orthogonalLoop=1;jettySize=auto;html=1;exitX=1;exitY=0.5;exitDx=0;exitDy=0;entryX=0;entryY=0.5;entryDx=0;entryDy=0;" edge="1" parent="1" source="gJ_Xtz6bmZQ4SBWZCn3s-28" target="gJ_Xtz6bmZQ4SBWZCn3s-30">
          <mxGeometry relative="1" as="geometry" />
        </mxCell>
        <mxCell id="gJ_Xtz6bmZQ4SBWZCn3s-28" value="chatting_info" style="rounded=0;whiteSpace=wrap;html=1;" vertex="1" parent="1">
          <mxGeometry x="200" y="320" width="100" height="30" as="geometry" />
        </mxCell>
        <mxCell id="gJ_Xtz6bmZQ4SBWZCn3s-35" style="edgeStyle=orthogonalEdgeStyle;rounded=0;orthogonalLoop=1;jettySize=auto;html=1;exitX=1;exitY=0.5;exitDx=0;exitDy=0;entryX=0;entryY=0.5;entryDx=0;entryDy=0;" edge="1" parent="1" source="gJ_Xtz6bmZQ4SBWZCn3s-29" target="gJ_Xtz6bmZQ4SBWZCn3s-31">
          <mxGeometry relative="1" as="geometry" />
        </mxCell>
        <mxCell id="gJ_Xtz6bmZQ4SBWZCn3s-29" value="chatting_comment" style="rounded=0;whiteSpace=wrap;html=1;" vertex="1" parent="1">
          <mxGeometry x="200" y="360" width="100" height="30" as="geometry" />
        </mxCell>
        <mxCell id="gJ_Xtz6bmZQ4SBWZCn3s-30" value="id: int, name: string, count: int, lastChat: string, lastChatTime: time, member: list&amp;lt;id: int&amp;gt;" style="rounded=0;whiteSpace=wrap;html=1;" vertex="1" parent="1">
          <mxGeometry x="340" y="320" width="480" height="30" as="geometry" />
        </mxCell>
        <mxCell id="gJ_Xtz6bmZQ4SBWZCn3s-31" value="id: int, chat_list&amp;lt;list id:int, name: string, comment: string, time: time&amp;gt;" style="rounded=0;whiteSpace=wrap;html=1;" vertex="1" parent="1">
          <mxGeometry x="340" y="360" width="380" height="30" as="geometry" />
        </mxCell>
      </root>
    </mxGraphModel>
  </diagram>
</mxfile>
